ffmpeg started on 2016-12-12 at 00:12:43
Report written to "Output/theora/results/ffmpeg/Tsintel500k.log"
Command line:
Tools/ffmpeg/ffmpeg -i Output/theora/encoded/sintel500k.mkv -c:v rawvideo -pix_fmt yuv420p Output/theora/transcoded/sintel500k.yuv
ffmpeg version N-82227-gdb23fde Copyright (c) 2000-2016 the FFmpeg developers
  built with gcc 5.4.0 (Ubuntu 5.4.0-6ubuntu1~16.04.2) 20160609
  configuration: --prefix=/home/jaroslav/ffmpeg_build --pkg-config-flags=--static --extra-cflags=-I/home/jaroslav/ffmpeg_build/include --extra-ldflags=-L/home/jaroslav/ffmpeg_build/lib --bindir=/home/jaroslav/bin --enable-gpl --enable-libass --enable-libfdk-aac --enable-libfreetype --enable-libmp3lame --enable-libopus --enable-libtheora --enable-libvorbis --enable-libvpx --enable-libx264 --enable-libx265 --enable-nvenc --enable-libmfx --enable-libxvid --enable-libgsm --enable-libopencore-amrnb --enable-version3 --enable-nonfree
  libavutil      55. 35.100 / 55. 35.100
  libavcodec     57. 66.101 / 57. 66.101
  libavformat    57. 57.100 / 57. 57.100
  libavdevice    57.  2.100 / 57.  2.100
  libavfilter     6. 66.100 /  6. 66.100
  libswscale      4.  3.100 /  4.  3.100
  libswresample   2.  4.100 /  2.  4.100
  libpostproc    54.  2.100 / 54.  2.100
Input #0, matroska,webm, from 'Output/theora/encoded/sintel500k.mkv':
  Metadata:
    ENCODER         : Lavf57.57.100
  Duration: 00:00:20.83, start: 0.000000, bitrate: 701 kb/s
    Stream #0:0: Video: theora, yuv420p(progressive), 4096x1744 [SAR 1:1 DAR 256:109], 24 fps, 24 tbr, 1k tbn, 24 tbc (default)
    Metadata:
      ENCODER         : Lavc57.66.101 libtheora
      DURATION        : 00:00:20.834000000
Output #0, rawvideo, to 'Output/theora/transcoded/sintel500k.yuv':
  Metadata:
    encoder         : Lavf57.57.100
    Stream #0:0: Video: rawvideo (I420 / 0x30323449), yuv420p, 4096x1744 [SAR 1:1 DAR 256:109], q=2-31, 200 kb/s, 24 fps, 24 tbn, 24 tbc (default)
    Metadata:
      DURATION        : 00:00:20.834000000
      encoder         : Lavc57.66.101 rawvideo
Stream mapping:
  Stream #0:0 -> #0:0 (theora (native) -> rawvideo (native))
Press [q] to stop, [?] for help
frame=   40 fps=0.0 q=-0.0 size=  418560kB time=00:00:01.66 bitrate=2057305.7kbits/s dup=33 drop=0 speed=2.37x    frame=   69 fps= 54 q=-0.0 size=  722016kB time=00:00:02.87 bitrate=2057306.1kbits/s dup=60 drop=0 speed=2.25x    frame=   93 fps= 48 q=-0.0 size=  973152kB time=00:00:03.87 bitrate=2057306.1kbits/s dup=82 drop=0 speed=1.98x    frame=  124 fps= 48 q=-0.0 size= 1297536kB time=00:00:05.16 bitrate=2057306.0kbits/s dup=111 drop=0 speed=   2x    frame=  158 fps= 45 q=-0.0 size= 1653312kB time=00:00:06.58 bitrate=2057306.2kbits/s dup=143 drop=0 speed=1.86x    frame=  187 fps= 45 q=-0.0 size= 1956768kB time=00:00:07.79 bitrate=2057306.0kbits/s dup=170 drop=0 speed=1.87x    frame=  217 fps= 45 q=-0.0 size= 2270688kB time=00:00:09.04 bitrate=2057306.0kbits/s dup=198 drop=0 speed=1.87x    frame=  240 fps= 43 q=-0.0 size= 2511360kB time=00:00:10.00 bitrate=2057306.1kbits/s dup=219 drop=0 speed=1.81x    frame=  279 fps= 43 q=-0.0 size= 2919456kB time=00:00:11.62 bitrate=2057306.1kbits/s dup=256 drop=0 speed= 1.8x    frame=  303 fps= 43 q=-0.0 size= 3170592kB time=00:00:12.62 bitrate=2057306.1kbits/s dup=278 drop=0 speed=1.79x    frame=  315 fps= 41 q=-0.0 size= 3296160kB time=00:00:13.12 bitrate=2057306.1kbits/s dup=289 drop=0 speed=1.73x    frame=  339 fps= 41 q=-0.0 size= 3547296kB time=00:00:14.12 bitrate=2057306.1kbits/s dup=311 drop=0 speed= 1.7x    frame=  363 fps= 40 q=-0.0 size= 3798432kB time=00:00:15.12 bitrate=2057306.1kbits/s dup=333 drop=0 speed=1.68x    frame=  387 fps= 39 q=-0.0 size= 4049568kB time=00:00:16.12 bitrate=2057306.1kbits/s dup=355 drop=0 speed=1.61x    frame=  411 fps= 38 q=-0.0 size= 4300704kB time=00:00:17.12 bitrate=2057306.1kbits/s dup=377 drop=0 speed=1.59x    frame=  447 fps= 37 q=-0.0 size= 4677408kB time=00:00:18.62 bitrate=2057306.1kbits/s dup=411 drop=0 speed=1.56x    frame=  459 fps= 36 q=-0.0 size= 4802976kB time=00:00:19.12 bitrate=2057306.1kbits/s dup=422 drop=0 speed=1.51x    frame=  483 fps= 36 q=-0.0 size= 5054112kB time=00:00:20.12 bitrate=2057306.1kbits/s dup=444 drop=0 speed=1.51x    frame=  495 fps= 35 q=-0.0 size= 5179680kB time=00:00:20.62 bitrate=2057306.1kbits/s dup=455 drop=0 speed=1.46x    frame=  505 fps= 35 q=-0.0 Lsize= 5284320kB time=00:00:21.04 bitrate=2057306.1kbits/s dup=465 drop=0 speed=1.46x    
video:5284320kB audio:0kB subtitle:0kB other streams:0kB global headers:0kB muxing overhead: 0.000000%
